<svg 
 xmlns="http://www.w3.org/2000/svg"
 xmlns:xlink="http://www.w3.org/1999/xlink"
 width="23px" height="23px">
<path fill-rule="evenodd"  fill="rgb(0, 0, 0)"
 d="M9.550,0.500 C8.331,0.500 7.160,0.742 6.35,1.226 C4.925,1.695 3.972,2.328 3.175,3.125 C2.379,3.937 1.738,4.898 1.253,6.7 C0.785,7.117 0.550,8.281 0.550,9.499 C0.550,10.718 0.785,11.882 1.253,12.992 C1.738,14.101 2.379,15.62 3.175,15.875 C3.972,16.671 4.925,17.312 6.35,17.796 C7.160,18.265 8.331,18.500 9.550,18.500 C10.597,18.500 11.597,18.328 12.550,17.984 C13.503,17.640 14.370,17.156 15.152,16.531 L20.824,22.203 C21.26,22.406 21.269,22.507 21.550,22.507 C21.831,22.507 22.66,22.406 22.254,22.203 C22.441,22.15 22.535,21.781 22.535,21.499 C22.535,21.218 22.441,20.984 22.254,20.796 L16.581,15.124 C17.206,14.343 17.691,13.469 18.35,12.499 C18.378,11.546 18.550,10.546 18.550,9.499 C18.550,8.281 18.308,7.117 17.824,6.7 C17.355,4.898 16.714,3.937 15.902,3.125 C15.105,2.328 14.152,1.695 13.43,1.226 C11.933,0.742 10.769,0.500 9.550,0.500 L9.550,0.500 ZM9.550,2.492 C10.488,2.492 11.394,2.679 12.269,3.54 C13.128,3.429 13.871,3.930 14.496,4.554 C15.120,5.179 15.621,5.922 15.996,6.781 C16.355,7.640 16.535,8.547 16.535,9.499 C16.535,10.453 16.355,11.359 15.996,12.218 C15.621,13.78 15.120,13.820 14.496,14.445 C13.871,15.70 13.128,15.570 12.269,15.945 C11.394,16.320 10.488,16.507 9.550,16.507 C8.597,16.507 7.691,16.320 6.831,15.945 C5.956,15.570 5.206,15.70 4.582,14.445 C3.957,13.820 3.464,13.78 3.105,12.218 C2.730,11.359 2.543,10.453 2.543,9.499 C2.543,8.547 2.730,7.640 3.105,6.781 C3.464,5.922 3.957,5.179 4.582,4.554 C5.206,3.930 5.956,3.429 6.831,3.54 C7.691,2.679 8.597,2.492 9.550,2.492 L9.550,2.492 Z"/>
</svg>